<svg width="1159" height="232" viewBox="0 0 1159 232" fill="none" xmlns="http://www.w3.org/2000/svg">
<path d="M1034.09 121.77V35.6797H1062.52V121.77H1034.09Z" fill="#4A35FF"/>
<path d="M968.969 123.201C961.133 123.201 955.278 121.401 948.819 117.801C942.465 114.095 937.382 108.959 933.57 102.394C929.758 95.7225 927.852 87.7806 927.852 78.568C927.852 69.4612 929.758 61.6252 933.57 55.0599C937.382 48.3887 942.465 43.253 948.819 39.6526C955.278 36.0523 961.133 34.2521 968.969 34.2521C976.382 34.2521 982.629 35.8405 987.712 39.0173C992.901 42.194 996.819 47.0651 999.466 53.6304C1002.11 60.1957 1003.44 68.5082 1003.44 78.568C1003.44 88.8395 1002.17 97.2579 999.625 103.823C997.084 110.389 993.271 115.26 988.189 118.436C983.106 121.613 976.699 123.201 968.969 123.201ZM975.323 99.2169C978.711 99.2169 981.729 98.4227 984.377 96.8343C987.13 95.2459 989.3 92.9163 990.889 89.8455C992.477 86.6687 993.271 82.9095 993.271 78.568C993.271 74.2264 992.477 70.5731 990.889 67.6081C989.3 64.5373 987.13 62.2076 984.377 60.6192C981.729 59.0309 978.711 58.2367 975.323 58.2367C971.828 58.2367 968.704 59.0309 965.951 60.6192C963.304 62.2076 961.186 64.5373 959.598 67.6081C958.009 70.5731 957.215 74.2264 957.215 78.568C957.215 82.9095 958.009 86.6687 959.598 89.8455C961.186 92.9163 963.304 95.2459 965.951 96.8343C968.704 98.4227 971.828 99.2169 975.323 99.2169ZM994.224 121.772V107L994.383 78.568L992.795 50.1359V3.91406H1021.83V121.772H994.224Z" fill="#4A35FF"/>
<path d="M885.931 34.2578C892.603 34.2578 898.638 35.6344 904.039 38.3876C909.439 41.0349 912.737 45.1647 915.808 50.7769C918.985 56.3892 920.573 63.6428 920.573 72.5378V121.777H891.332V77.4617C891.332 71.32 890.061 66.8725 887.52 64.1193C885.084 61.2602 881.643 59.8307 877.195 59.8307C874.019 59.8307 871.106 60.5719 868.459 62.0544C865.812 63.431 863.747 65.6018 862.264 68.5668C860.782 71.5318 860.041 75.3968 860.041 80.162V121.777H831.227V35.6873H858.611V60.1484L853.052 53.0007C856.335 46.753 860.835 42.0938 866.553 39.0229C872.271 35.8462 878.731 34.2578 885.931 34.2578Z" fill="#4A35FF"/>
<path d="M789.531 121.773V10.5859H817.656V121.773H789.531Z" fill="#4A35FF"/>
<path d="M624.585 123.207C614.419 123.207 607.216 121.62 599.592 117.808C592.074 113.89 586.197 108.595 581.961 101.924C577.831 95.1471 575.766 87.47 575.766 78.8927C575.766 70.3155 577.778 62.6912 581.802 56.02C585.932 49.2429 591.597 44.0013 598.798 40.2951C605.998 36.483 612.407 34.2578 621.408 34.2578C629.879 34.2578 635.119 35.5829 642.108 39.0773C649.096 42.4659 654.1 48.2634 658.23 54.9346C662.359 61.6058 664.424 69.7066 664.424 79.2369C664.424 80.2958 664.371 81.5135 664.265 82.8901C664.16 84.2667 664.054 85.5374 663.948 86.7023L600.545 86.6758L599.592 70.8185H647.905L639.515 74.9203C639.621 71.0023 638.88 67.6138 637.292 64.7547C635.809 61.8956 633.691 59.6719 630.938 58.0835C628.291 56.4951 625.167 55.7009 621.567 55.7009C617.966 55.7009 614.79 56.4951 612.036 58.0835C609.389 59.6719 607.324 61.9485 605.842 64.9135C604.359 67.7726 604.225 70.8714 604.225 74.7894L605.31 80.0046C605.31 84.2403 604.465 87.5744 606.159 90.6453C607.96 93.7162 610.501 96.0987 613.784 97.793C617.066 99.3814 620.984 100.175 625.538 100.175C629.773 100.175 633.374 99.5932 636.339 98.4284C639.41 97.1576 642.427 95.2516 645.392 92.7102L661.276 109.229C657.146 113.782 652.064 117.277 646.028 119.712C639.992 122.042 632.844 123.207 624.585 123.207Z" fill="#4A35FF"/>
<path d="M718.561 123.207C708.395 123.207 701.192 121.62 693.568 117.808C686.05 113.89 680.173 108.595 675.937 101.924C671.807 95.1471 669.742 87.47 669.742 78.8927C669.742 70.3155 671.754 62.6912 675.778 56.02C679.908 49.2429 685.573 44.0013 692.774 40.2951C699.974 36.483 706.383 34.2578 715.384 34.2578C723.855 34.2578 729.095 35.5829 736.084 39.0773C743.072 42.4659 748.076 48.2634 752.206 54.9346C756.335 61.6058 758.4 69.7066 758.4 79.2369C758.4 80.2958 758.347 81.5135 758.241 82.8901C758.136 84.2667 758.03 85.5374 757.924 86.7023L694.521 86.6758L693.568 70.8185H741.881L733.491 74.9203C733.597 71.0023 732.856 67.6138 731.268 64.7547C729.785 61.8956 727.667 59.6719 724.914 58.0835C722.267 56.4951 719.143 55.7009 715.543 55.7009C711.942 55.7009 708.766 56.4951 706.012 58.0835C703.365 59.6719 701.3 61.9485 699.818 64.9135C698.335 67.7726 698.201 70.8714 698.201 74.7894L699.286 80.0046C699.286 84.2403 698.441 87.5744 700.135 90.6453C701.936 93.7162 704.477 96.0987 707.76 97.793C711.042 99.3814 714.96 100.175 719.514 100.175C723.749 100.175 727.35 99.5932 730.315 98.4284C733.386 97.1576 736.403 95.2516 739.368 92.7102L755.252 109.229C751.122 113.782 746.04 117.277 740.004 119.712C733.968 122.042 726.82 123.207 718.561 123.207Z" fill="#4A35FF"/>
<path d="M459.278 122.089V36.9523C459.278 26.5748 462.349 18.3153 468.49 12.1735C474.738 5.92586 481.895 2.48438 493.437 2.48438C497.143 2.48438 500.797 2.855 504.397 3.59625C507.997 4.33749 511.015 5.44936 513.451 6.93185L505.985 28.2162C504.715 27.4749 503.285 26.8925 501.697 26.4689C500.108 25.9395 498.52 25.6748 496.932 25.6748C493.755 25.6748 491.266 26.6278 489.466 28.5338C487.772 30.334 486.925 33.1401 486.925 36.9523V43.1469L487.719 55.6952V121.771L459.278 122.089ZM444.992 61.4133V38.8583H507.415V61.4133H444.992Z" fill="#4A35FF"/>
<path d="M406.937 34.2521C413.608 34.2521 420.235 36.8896 423.279 38.3819C428.68 41.0292 432.916 45.159 435.986 50.7713C439.163 56.3836 440.752 63.6372 440.752 72.5321V121.772H412.338V77.4561C412.338 71.3143 411.067 66.8669 408.526 64.1137C406.09 61.2546 402.649 59.8251 398.201 59.8251C395.024 59.8251 392.112 60.5663 389.465 62.0488C386.818 63.4254 384.753 65.5962 383.27 68.5611C381.788 71.5261 381.047 75.3912 381.047 80.1563V121.772H353.391V3.91406H381.047V60.1427L374.058 52.995C377.34 46.7474 381.841 42.0881 387.559 39.0173C393.277 35.8405 399.737 34.2521 406.937 34.2521Z" fill="#4A35FF"/>
<path d="M305.348 123.207C298.041 123.207 290.893 122.36 283.905 120.665C277.022 118.971 271.462 116.853 267.227 114.312L276.28 93.6632C280.304 96.0987 285.016 98.0577 290.417 99.5402C295.817 100.917 301.112 101.605 306.301 101.605C311.384 101.605 314.878 101.075 316.784 100.017C318.796 98.9578 319.802 97.5283 319.802 95.7281C319.802 94.0338 318.849 92.8161 316.943 92.0748C315.143 91.2277 312.707 90.5923 309.636 90.1688C306.671 89.7452 303.389 89.2687 299.788 88.7392C296.188 88.2098 292.535 87.5215 288.829 86.6743C285.228 85.7213 281.893 84.3447 278.822 82.5445C275.857 80.6385 273.474 78.0971 271.674 74.9203C269.874 71.7436 268.974 67.7197 268.974 62.8486C268.974 57.3422 270.562 52.4712 273.739 48.2355C277.022 43.8939 281.787 40.5054 288.034 38.0699C294.282 35.5285 301.906 34.2578 310.907 34.2578C316.943 34.2578 323.032 34.8931 329.173 36.1638C335.421 37.3286 340.663 39.1288 344.898 41.5643L335.845 62.0544C331.609 59.6189 327.373 57.9776 323.138 57.1305C318.902 56.1774 314.878 55.7009 311.066 55.7009C305.983 55.7009 302.383 56.2833 300.265 57.4481C298.253 58.6129 297.247 60.0425 297.247 61.7368C297.247 63.431 298.147 64.7547 299.947 65.7077C301.747 66.5548 304.13 67.2431 307.095 67.7726C310.166 68.1962 313.501 68.6727 317.102 69.2021C320.702 69.6257 324.302 70.314 327.903 71.267C331.609 72.2201 334.945 73.6496 337.909 75.5557C340.98 77.3558 343.416 79.8443 345.216 83.0211C347.016 86.0919 347.916 90.0629 347.916 94.9339C347.916 100.228 346.275 104.993 342.992 109.229C339.816 113.465 335.05 116.853 328.697 119.395C322.449 121.936 314.666 123.207 305.348 123.207Z" fill="#4A35FF"/>
<path d="M234.311 121.777V105.735L232.246 101.764V72.2201C232.246 67.4549 230.764 63.8017 227.799 61.2602C224.939 58.6129 220.333 57.2893 213.98 57.2893C209.85 57.2893 205.667 57.9776 201.431 59.3542C197.196 60.6249 193.595 62.4251 190.63 64.7547L180.465 44.2646C185.336 41.0878 191.161 38.6523 197.938 36.958C204.82 35.1579 211.65 34.2578 218.427 34.2578C232.405 34.2578 241.542 39.9128 246.837 44.2646C255.793 51.6255 258.431 60.6249 258.431 74.285V122.095L234.311 121.777ZM208.897 123.207C202.014 123.207 196.19 122.042 191.425 119.712C186.659 117.383 183.006 114.206 180.465 110.182C178.029 106.158 176.812 101.658 176.812 96.6811C176.812 91.3865 178.136 86.8332 180.783 83.0211C183.537 79.1031 187.718 76.1381 193.331 74.1261C198.943 72.0083 206.197 70.9494 215.092 70.9494H235.423V86.6743H219.221C214.35 86.6743 210.909 87.4685 208.897 89.0569C206.991 90.6453 206.038 92.7631 206.038 95.4104C206.038 98.0577 207.044 100.175 209.056 101.764C211.068 103.352 213.821 104.146 217.315 104.146C220.598 104.146 223.563 103.352 226.21 101.764C228.963 100.069 230.975 97.5283 232.246 94.1397L236.376 105.258C234.787 111.188 231.665 115.689 227.005 118.759C222.452 121.724 216.415 123.207 208.897 123.207Z" fill="#4A35FF"/>
<path d="M1129.09 121.777V105.735L1127.03 101.764V72.2201C1127.03 67.4549 1125.55 63.8017 1122.58 61.2602C1119.72 58.6129 1115.11 57.2893 1108.76 57.2893C1104.63 57.2893 1100.45 57.9776 1096.21 59.3542C1091.98 60.6249 1088.38 62.4251 1085.41 64.7547L1075.25 44.2646C1080.12 41.0878 1085.94 38.6523 1092.72 36.958C1099.6 35.1579 1106.43 34.2578 1113.21 34.2578C1127.19 34.2578 1136.32 39.9128 1141.62 44.2646C1150.57 51.6255 1153.21 60.6249 1153.21 74.285V122.095L1129.09 121.777ZM1103.68 123.207C1096.8 123.207 1090.97 122.042 1086.21 119.712C1081.44 117.383 1077.79 114.206 1075.25 110.182C1072.81 106.158 1071.59 101.658 1071.59 96.6811C1071.59 91.3865 1072.92 86.8332 1075.56 83.0211C1078.32 79.1031 1082.5 76.1381 1088.11 74.1261C1093.72 72.0083 1100.98 70.9494 1109.87 70.9494H1130.2V86.6743H1114C1109.13 86.6743 1105.69 87.4685 1103.68 89.0569C1101.77 90.6453 1100.82 92.7631 1100.82 95.4104C1100.82 98.0577 1101.83 100.175 1103.84 101.764C1105.85 103.352 1108.6 104.146 1112.1 104.146C1115.38 104.146 1118.34 103.352 1120.99 101.764C1123.75 100.069 1125.76 97.5283 1127.03 94.1397L1131.16 105.258C1129.57 111.188 1126.45 115.689 1121.79 118.759C1117.23 121.724 1111.2 123.207 1103.68 123.207Z" fill="#4A35FF"/>
<path d="M116.457 121.934V35.8436H142.998V60.94L138.71 53.7923C141.251 47.3329 145.381 42.5148 151.099 39.338C156.817 36.0554 163.753 34.4141 171.907 34.4141V61.5754C170.53 61.3636 169.313 61.2577 168.254 61.2577C167.301 61.1518 166.242 61.0988 165.077 61.0988C158.935 61.0988 153.958 62.7931 150.146 66.1817C146.334 69.4643 144.428 74.8648 144.428 82.3831V121.934H116.457Z" fill="#4A35FF"/>
<path d="M517.523 121.934V35.8436H544.065V60.94L539.777 53.7923C542.318 47.3329 546.448 42.5148 552.166 39.338C557.884 36.0554 564.82 34.4141 572.974 34.4141V61.5754C571.597 61.3636 570.38 61.2577 569.321 61.2577C568.368 61.1518 567.309 61.0988 566.144 61.0988C560.002 61.0988 555.025 62.7931 551.213 66.1817C547.401 69.4643 545.495 74.8648 545.495 82.3831V121.934H517.523Z" fill="#4A35FF"/>
<path d="M58.6096 124.001C49.8205 124.001 42.9928 122.46 36.6916 120.03C29.2792 117.171 22.8197 113.147 17.3133 107.958C11.9129 102.77 7.67717 96.6812 4.6063 89.6923C1.53543 82.5976 0 74.8144 0 66.343C0 57.8717 1.53543 50.1416 4.6063 43.1527C7.67717 36.0579 11.9129 29.9162 17.3133 24.7275C22.8197 19.5388 29.2792 15.3291 36.6916 12.5759C44.2099 9.7169 49.8205 8.36719 58.6096 8.36719C68.8811 8.36719 78.0406 10.1673 86.0884 13.7676C94.2421 17.368 101.019 22.5567 106.42 29.3338L86.4061 47.4413C82.8057 43.2056 78.8349 39.9759 74.4934 37.7522C70.2577 35.5285 65.4926 34.4166 60.198 34.4166C55.6446 34.4166 51.4619 35.1578 47.6497 36.6403C43.8376 38.1228 40.555 40.2936 37.8018 43.1527C35.1545 45.9059 33.0366 49.2415 31.4483 53.1595C29.9658 57.0775 29.2245 61.4191 29.2245 66.1842C29.2245 70.9494 29.9658 75.291 31.4483 79.209C33.0366 83.127 35.1545 86.5155 37.8018 89.3746C40.555 92.1278 43.8376 94.2456 47.6497 95.7281C51.4619 97.2106 55.6446 97.9519 60.198 97.9519C65.4926 97.9519 70.2577 96.8399 74.4934 94.6162C78.8349 92.3925 82.8057 89.1628 86.4061 84.9271L106.42 103.034C101.019 109.706 94.2421 114.894 86.0884 118.6C78.0406 122.201 68.8811 124.001 58.6096 124.001Z" fill="#4A35FF"/>
<path d="M1048.31 29.1204C1056.35 29.1204 1062.87 22.6016 1062.87 14.5602C1062.87 6.51882 1056.35 0 1048.31 0C1040.27 0 1033.75 6.51882 1033.75 14.5602C1033.75 22.6016 1040.27 29.1204 1048.31 29.1204Z" fill="#4A35FF"/>
<path d="M0 190H249" stroke="#4A35FF" stroke-width="6"/>
<path d="M263.199 213.997L278.559 171.397H285.519L300.879 213.997H295.239L290.979 201.878H273.099L268.839 213.997H263.199ZM274.839 196.837H289.239L282.039 175.897L274.839 196.837ZM339.397 214.958C335.517 214.958 332.097 214.078 329.137 212.318C326.177 210.518 323.857 207.977 322.177 204.697C320.497 201.377 319.657 197.397 319.657 192.757C319.657 188.197 320.477 184.257 322.117 180.938C323.757 177.578 326.057 174.997 329.017 173.197C331.977 171.357 335.457 170.438 339.457 170.438C344.897 170.438 349.117 171.798 352.117 174.518C355.117 177.198 357.077 180.958 357.997 185.798L349.837 186.217C349.317 183.417 348.197 181.217 346.477 179.617C344.757 178.017 342.417 177.217 339.457 177.217C337.057 177.217 334.977 177.857 333.217 179.137C331.457 180.417 330.097 182.217 329.137 184.537C328.177 186.857 327.697 189.597 327.697 192.757C327.697 195.957 328.177 198.717 329.137 201.037C330.137 203.317 331.517 205.078 333.277 206.318C335.037 207.558 337.077 208.177 339.397 208.177C342.557 208.177 344.997 207.318 346.717 205.598C348.477 203.838 349.597 201.437 350.077 198.397L358.237 198.818C357.677 202.138 356.597 205.018 354.997 207.458C353.397 209.858 351.277 211.717 348.637 213.037C346.037 214.317 342.957 214.958 339.397 214.958ZM373.585 214.717C370.225 214.717 367.525 213.957 365.485 212.438C363.445 210.878 362.425 208.718 362.425 205.958C362.425 203.198 363.285 201.037 365.005 199.477C366.725 197.917 369.345 196.797 372.865 196.117L383.485 194.018C383.485 191.738 382.965 190.037 381.925 188.917C380.885 187.757 379.345 187.177 377.305 187.177C375.465 187.177 374.005 187.617 372.925 188.497C371.885 189.337 371.165 190.558 370.765 192.158L362.965 191.798C363.605 188.398 365.165 185.797 367.645 183.997C370.125 182.157 373.345 181.238 377.305 181.238C381.865 181.238 385.305 182.397 387.625 184.717C389.985 186.997 391.165 190.277 391.165 194.557V206.197C391.165 207.037 391.305 207.618 391.585 207.938C391.905 208.257 392.365 208.417 392.965 208.417H393.985V213.997C393.745 214.077 393.345 214.137 392.785 214.177C392.265 214.217 391.725 214.238 391.165 214.238C389.845 214.238 388.665 214.037 387.625 213.637C386.585 213.197 385.785 212.457 385.225 211.417C384.665 210.337 384.385 208.877 384.385 207.037L385.045 207.518C384.725 208.918 384.025 210.178 382.945 211.298C381.905 212.378 380.585 213.218 378.985 213.818C377.385 214.418 375.585 214.717 373.585 214.717ZM375.145 209.137C376.865 209.137 378.345 208.797 379.585 208.117C380.825 207.437 381.785 206.498 382.465 205.298C383.145 204.098 383.485 202.677 383.485 201.037V199.238L375.205 200.917C373.485 201.277 372.245 201.817 371.485 202.537C370.765 203.217 370.405 204.118 370.405 205.238C370.405 206.478 370.805 207.437 371.605 208.117C372.445 208.797 373.625 209.137 375.145 209.137ZM398.972 213.997V181.958H406.172L406.472 190.837L405.812 190.717C406.292 187.637 407.192 185.417 408.512 184.057C409.872 182.657 411.712 181.958 414.032 181.958H416.972V188.557H413.972C412.332 188.557 410.972 188.797 409.892 189.277C408.812 189.757 407.992 190.517 407.432 191.557C406.912 192.557 406.652 193.878 406.652 195.518V213.997H398.972ZM434.141 214.717C430.981 214.717 428.321 214.257 426.161 213.337C424.041 212.417 422.401 211.137 421.241 209.497C420.081 207.857 419.421 205.997 419.261 203.917L427.121 203.557C427.401 205.237 428.101 206.538 429.221 207.458C430.341 208.378 432.001 208.837 434.201 208.837C436.001 208.837 437.401 208.557 438.401 207.997C439.441 207.397 439.961 206.478 439.961 205.238C439.961 204.518 439.781 203.917 439.421 203.438C439.061 202.958 438.381 202.537 437.381 202.177C436.381 201.817 434.901 201.458 432.941 201.098C429.661 200.538 427.081 199.857 425.201 199.057C423.321 198.217 421.981 197.178 421.181 195.938C420.421 194.697 420.041 193.158 420.041 191.318C420.041 188.318 421.181 185.897 423.461 184.057C425.781 182.177 429.161 181.238 433.601 181.238C436.481 181.238 438.901 181.717 440.861 182.677C442.821 183.597 444.341 184.878 445.421 186.518C446.541 188.118 447.241 189.957 447.521 192.037L439.781 192.397C439.581 191.317 439.221 190.377 438.701 189.577C438.181 188.777 437.481 188.177 436.601 187.777C435.721 187.337 434.681 187.117 433.481 187.117C431.681 187.117 430.321 187.477 429.401 188.197C428.481 188.917 428.021 189.877 428.021 191.077C428.021 191.917 428.221 192.617 428.621 193.177C429.061 193.737 429.761 194.197 430.721 194.557C431.681 194.877 432.961 195.178 434.561 195.458C437.921 195.978 440.561 196.657 442.481 197.497C444.441 198.297 445.821 199.337 446.621 200.617C447.461 201.857 447.881 203.357 447.881 205.117C447.881 207.157 447.301 208.897 446.141 210.337C445.021 211.777 443.421 212.877 441.341 213.637C439.301 214.357 436.901 214.717 434.141 214.717ZM453.801 213.997C453.801 210.557 454.281 207.557 455.241 204.997C456.201 202.397 457.821 200.037 460.101 197.917C462.381 195.757 465.461 193.657 469.341 191.617C471.261 190.577 472.801 189.657 473.961 188.857C475.121 188.057 475.961 187.237 476.481 186.397C477.001 185.517 477.261 184.477 477.261 183.277C477.261 182.077 477.001 181.038 476.481 180.158C475.961 179.238 475.181 178.517 474.141 177.997C473.141 177.477 471.881 177.217 470.361 177.217C467.921 177.217 465.981 177.918 464.541 179.318C463.141 180.678 462.281 182.637 461.961 185.197L453.921 184.717C454.321 180.277 455.941 176.797 458.781 174.277C461.661 171.717 465.521 170.438 470.361 170.438C473.481 170.438 476.161 170.977 478.401 172.057C480.641 173.097 482.341 174.577 483.501 176.497C484.701 178.417 485.301 180.638 485.301 183.158C485.301 185.318 484.921 187.178 484.161 188.738C483.441 190.298 482.241 191.737 480.561 193.057C478.921 194.337 476.701 195.717 473.901 197.197C470.381 199.077 467.741 200.898 465.981 202.658C464.221 204.378 463.281 205.897 463.161 207.217H485.301V213.997H453.801ZM510.271 213.997V205.477H488.911V199.117L509.011 171.397H518.071V198.697H523.171V205.477H518.071V213.997H510.271ZM497.431 198.697H510.271V181.537L497.431 198.697ZM562.745 214.958C558.945 214.958 555.605 214.078 552.725 212.318C549.845 210.518 547.605 207.957 546.005 204.637C544.405 201.317 543.605 197.357 543.605 192.757C543.605 188.157 544.405 184.198 546.005 180.878C547.605 177.518 549.845 174.937 552.725 173.137C555.605 171.337 558.945 170.438 562.745 170.438C567.905 170.438 571.905 171.737 574.745 174.337C577.585 176.937 579.445 180.478 580.325 184.958L574.865 185.318C574.265 182.278 572.985 179.877 571.025 178.117C569.065 176.357 566.305 175.477 562.745 175.477C560.025 175.477 557.625 176.177 555.545 177.577C553.505 178.937 551.905 180.918 550.745 183.518C549.585 186.078 549.005 189.157 549.005 192.757C549.005 196.357 549.585 199.437 550.745 201.997C551.905 204.557 553.505 206.518 555.545 207.878C557.625 209.238 560.025 209.917 562.745 209.917C566.465 209.917 569.345 208.957 571.385 207.037C573.425 205.077 574.705 202.437 575.225 199.117L580.685 199.477C580.165 202.557 579.145 205.257 577.625 207.577C576.105 209.897 574.085 211.717 571.565 213.037C569.085 214.317 566.145 214.958 562.745 214.958ZM599.844 214.717C596.924 214.717 594.364 214.037 592.164 212.677C589.964 211.317 588.264 209.397 587.064 206.917C585.864 204.397 585.264 201.458 585.264 198.098C585.264 194.698 585.864 191.757 587.064 189.277C588.264 186.797 589.964 184.878 592.164 183.518C594.364 182.158 596.924 181.477 599.844 181.477C602.764 181.477 605.304 182.158 607.464 183.518C609.664 184.878 611.364 186.797 612.564 189.277C613.764 191.757 614.364 194.698 614.364 198.098C614.364 201.458 613.764 204.397 612.564 206.917C611.364 209.397 609.664 211.317 607.464 212.677C605.304 214.037 602.764 214.717 599.844 214.717ZM599.844 209.917C602.764 209.917 605.024 208.878 606.624 206.798C608.264 204.678 609.084 201.778 609.084 198.098C609.084 194.418 608.264 191.538 606.624 189.458C605.024 187.338 602.764 186.277 599.844 186.277C596.924 186.277 594.644 187.338 593.004 189.458C591.364 191.538 590.544 194.418 590.544 198.098C590.544 201.778 591.364 204.678 593.004 206.798C594.644 208.878 596.924 209.917 599.844 209.917ZM621.233 213.997V182.197H625.853L626.033 190.238L625.313 189.997C625.673 188.237 626.293 186.737 627.173 185.497C628.093 184.217 629.213 183.237 630.533 182.557C631.853 181.837 633.313 181.477 634.913 181.477C637.673 181.477 639.913 182.237 641.633 183.757C643.393 185.277 644.493 187.397 644.933 190.117L643.973 190.057C644.293 188.217 644.873 186.678 645.713 185.438C646.593 184.158 647.713 183.177 649.073 182.497C650.433 181.817 651.993 181.477 653.753 181.477C656.033 181.477 657.953 181.957 659.513 182.917C661.073 183.837 662.253 185.197 663.053 186.997C663.853 188.797 664.253 190.977 664.253 193.537V213.997H659.213V194.617C659.213 191.737 658.653 189.577 657.533 188.137C656.413 186.657 654.753 185.917 652.553 185.917C651.073 185.917 649.773 186.277 648.653 186.997C647.573 187.717 646.733 188.757 646.133 190.117C645.533 191.437 645.233 193.057 645.233 194.977V213.997H640.193V194.977C640.193 192.137 639.693 189.918 638.693 188.318C637.693 186.718 636.013 185.917 633.653 185.917C632.173 185.917 630.873 186.277 629.753 186.997C628.673 187.717 627.813 188.757 627.173 190.117C626.573 191.477 626.273 193.097 626.273 194.977V213.997H621.233ZM672.678 213.997V182.197H677.298L677.478 190.238L676.758 189.997C677.118 188.237 677.738 186.737 678.618 185.497C679.538 184.217 680.658 183.237 681.978 182.557C683.298 181.837 684.758 181.477 686.358 181.477C689.118 181.477 691.358 182.237 693.078 183.757C694.838 185.277 695.938 187.397 696.378 190.117L695.418 190.057C695.738 188.217 696.318 186.678 697.158 185.438C698.038 184.158 699.158 183.177 700.518 182.497C701.878 181.817 703.438 181.477 705.198 181.477C707.478 181.477 709.398 181.957 710.958 182.917C712.518 183.837 713.698 185.197 714.498 186.997C715.298 188.797 715.698 190.977 715.698 193.537V213.997H710.658V194.617C710.658 191.737 710.098 189.577 708.978 188.137C707.858 186.657 706.198 185.917 703.998 185.917C702.518 185.917 701.218 186.277 700.098 186.997C699.018 187.717 698.178 188.757 697.578 190.117C696.978 191.437 696.678 193.057 696.678 194.977V213.997H691.638V194.977C691.638 192.137 691.138 189.918 690.138 188.318C689.138 186.718 687.458 185.917 685.098 185.917C683.618 185.917 682.318 186.277 681.198 186.997C680.118 187.717 679.258 188.757 678.618 190.117C678.018 191.477 677.718 193.097 677.718 194.977V213.997H672.678ZM724.709 213.997V182.197H729.749V213.997H724.709ZM724.589 177.217V171.337H729.869V177.217H724.589ZM748.595 213.997C745.715 213.997 743.575 213.338 742.175 212.018C740.815 210.698 740.135 208.637 740.135 205.837V174.757H745.175V205.717C745.175 207.157 745.495 208.157 746.135 208.717C746.775 209.277 747.755 209.557 749.075 209.557H753.635V213.997H748.595ZM735.455 186.637V182.197H753.635V186.637H735.455ZM760.744 213.997V182.197H765.364L765.544 190.238L764.824 189.997C765.184 188.237 765.804 186.737 766.684 185.497C767.604 184.217 768.724 183.237 770.044 182.557C771.364 181.837 772.824 181.477 774.424 181.477C777.184 181.477 779.424 182.237 781.144 183.757C782.904 185.277 784.004 187.397 784.444 190.117L783.484 190.057C783.804 188.217 784.384 186.678 785.224 185.438C786.104 184.158 787.224 183.177 788.584 182.497C789.944 181.817 791.504 181.477 793.264 181.477C795.544 181.477 797.464 181.957 799.024 182.917C800.584 183.837 801.764 185.197 802.564 186.997C803.364 188.797 803.764 190.977 803.764 193.537V213.997H798.724V194.617C798.724 191.737 798.164 189.577 797.044 188.137C795.924 186.657 794.264 185.917 792.064 185.917C790.584 185.917 789.284 186.277 788.164 186.997C787.084 187.717 786.244 188.757 785.644 190.117C785.044 191.437 784.744 193.057 784.744 194.977V213.997H779.704V194.977C779.704 192.137 779.204 189.918 778.204 188.318C777.204 186.718 775.524 185.917 773.164 185.917C771.684 185.917 770.384 186.277 769.264 186.997C768.184 187.717 767.324 188.757 766.684 190.117C766.084 191.477 765.784 193.097 765.784 194.977V213.997H760.744ZM825.078 214.717C822.078 214.717 819.478 214.037 817.278 212.677C815.118 211.317 813.438 209.397 812.238 206.917C811.078 204.397 810.498 201.458 810.498 198.098C810.498 194.738 811.078 191.817 812.238 189.337C813.438 186.857 815.098 184.937 817.218 183.577C819.378 182.177 821.918 181.477 824.838 181.477C827.598 181.477 830.038 182.138 832.158 183.458C834.278 184.738 835.918 186.618 837.078 189.098C838.278 191.578 838.878 194.598 838.878 198.158V199.658H815.778C815.978 203.058 816.878 205.617 818.478 207.337C820.118 209.057 822.318 209.917 825.078 209.917C827.158 209.917 828.858 209.437 830.178 208.477C831.538 207.477 832.478 206.177 832.998 204.577L838.398 204.997C837.558 207.837 835.958 210.178 833.598 212.018C831.278 213.818 828.438 214.717 825.078 214.717ZM815.778 195.217H833.358C833.118 192.137 832.218 189.878 830.658 188.438C829.138 186.997 827.198 186.277 824.838 186.277C822.398 186.277 820.378 187.037 818.778 188.557C817.218 190.037 816.218 192.257 815.778 195.217ZM845.705 213.997V182.197H850.325L850.505 190.298L849.905 189.757C850.305 187.877 851.005 186.337 852.005 185.137C853.005 183.897 854.205 182.978 855.605 182.378C857.045 181.778 858.585 181.477 860.225 181.477C862.665 181.477 864.665 182.018 866.225 183.098C867.825 184.178 869.005 185.637 869.765 187.477C870.565 189.277 870.965 191.297 870.965 193.537V213.997H865.925V194.977C865.925 193.017 865.685 191.377 865.205 190.057C864.765 188.697 864.045 187.677 863.045 186.997C862.045 186.277 860.745 185.917 859.145 185.917C856.705 185.917 854.685 186.697 853.085 188.257C851.525 189.777 850.745 192.017 850.745 194.977V213.997H845.705ZM889.806 213.997C886.926 213.997 884.786 213.338 883.386 212.018C882.026 210.698 881.346 208.637 881.346 205.837V174.757H886.386V205.717C886.386 207.157 886.706 208.157 887.346 208.717C887.986 209.277 888.966 209.557 890.286 209.557H894.846V213.997H889.806ZM876.666 186.637V182.197H894.846V186.637H876.666Z" fill="#4A35FF"/>
<path d="M910 190H1159" stroke="#4A35FF" stroke-width="6"/>
</svg>
